<svg xmlns="http://www.w3.org/2000/svg" viewBox="0 0 1000 500" width="1000" height="500" role="img" aria-label="Mila — Greek voice commands for Android Auto">
  <rect width="1000" height="500" fill="#0e1a2a"/>

  <!-- mic -->
  <g transform="translate(200,128) scale(4.6)" fill="#7fd1c4">
    <path d="M12,14c1.66,0 3,-1.34 3,-3V5c0,-1.66 -1.34,-3 -3,-3S9,3.34 9,5v6c0,1.66 1.34,3 3,3zM17,11c0,2.76 -2.24,5 -5,5s-5,-2.24 -5,-5H5c0,3.53 2.61,6.43 6,6.92V21h2v-3.08c3.39,-0.49 6,-3.39 6,-6.92h-2z"/>
  </g>

  <text x="345" y="196" font-family="Helvetica,Arial,sans-serif" font-size="76" font-weight="700" fill="#f2f6fa">Μίλα</text>
  <text x="345" y="250" font-family="Helvetica,Arial,sans-serif" font-size="30" fill="#93a9c2">Σε ακούω…</text>

  <rect x="345" y="292" width="240" height="76" rx="38" fill="#7fd1c4"/>
  <text x="465" y="340" text-anchor="middle" font-family="Helvetica,Arial,sans-serif" font-size="29" font-weight="600" fill="#0e1a2a">Πλοήγηση</text>

  <rect x="605" y="292" width="200" height="76" rx="38" fill="none" stroke="#5d7794" stroke-width="3"/>
  <text x="705" y="340" text-anchor="middle" font-family="Helvetica,Arial,sans-serif" font-size="29" font-weight="600" fill="#c6d5e5">Κλήση</text>

  <text x="500" y="443" text-anchor="middle" font-family="Helvetica,Arial,sans-serif" font-size="26" fill="#7f95ae">Greek voice commands for Android Auto</text>
</svg>
